PathFileType	3	(X/Y/Z)	C:\Files\Projects\EMG to Moment Estimation\Newest Patten Data\NSFproject\Patient 4\Session 1\Patient4_Static01.TRC
DataRate	CameraRate	NumFrames	NumMarkers	Units	OrigDataRate	OrigDataStartFrame	OrigNumFrames
100.0	100.0	4	47	mm	100.0	342	910	
Frame#	Time	Patient 4:Sacral		Patient 4:Lumbar		Patient 4:L.Shoulder		Patient 4:Chest		Patient 4:R.Shoulder		Patient 4:Neck		Patient 4:R.ASIS		Patient 4:L.ASIS		Patient 4:R.Thigh.Superior		Patient 4:R.Thigh.Lateral		Patient 4:R.Thigh.Inferior		Patient 4:R.Knee.Lateral		Patient 4:R.Patella		Patient 4:R.Knee.Medial		Patient 4:L.Thigh.Superior		Patient 4:L.Thigh.Lateral		Patient 4:L.Thigh.Inferior		Patient 4:L.Patella		Patient 4:L.Knee.Medial		Patient 4:L.Knee.Lateral		Patient 4:L.Shank.Superior		Patient 4:L.Shank.Lateral		Patient 4:L.Shank.Inferior		Patient 4:L.Ankle.Medial		Patient 4:L.Ankle.Lateral		Patient 4:R.Shank.Superior		Patient 4:R.Shank.Lateral		Patient 4:R.Shank.Inferior		Patient 4:R.Ankle.Lateral		Patient 4:R.Ankle.Medial		Patient 4:R.Heel		Patient 4:R.Midfoot.Superior		Patient 4:R.Midfoot.Lateral		Patient 4:R.Toe.Lateral		Patient 4:R.Toe.Medial		Patient 4:R.Toe		Patient 4:L.Heel		Patient 4:L.Midfoot.Lateral		Patient 4:L.Toe.Lateral		Patient 4:L.Midfoot.Superior		Patient 4:L.Toe		Patient 4:L.Toe.Medial		Patient 4:L.Elbow		Patient 4:L.Wrist		Patient 4:R.Elbow		Patient 4:R.Wrist		Patient 4:Ground		
		X1	Y1	Z1	X2	Y2	Z2	X3	Y3	Z3	X4	Y4	Z4	X5	Y5	Z5	X6	Y6	Z6	X7	Y7	Z7	X8	Y8	Z8	X9	Y9	Z9	X10	Y10	Z10	X11	Y11	Z11	X12	Y12	Z12	X13	Y13	Z13	X14	Y14	Z14	X15	Y15	Z15	X16	Y16	Z16	X17	Y17	Z17	X18	Y18	Z18	X19	Y19	Z19	X20	Y20	Z20	X21	Y21	Z21	X22	Y22	Z22	X23	Y23	Z23	X24	Y24	Z24	X25	Y25	Z25	X26	Y26	Z26	X27	Y27	Z27	X28	Y28	Z28	X29	Y29	Z29	X30	Y30	Z30	X31	Y31	Z31	X32	Y32	Z32	X33	Y33	Z33	X34	Y34	Z34	X35	Y35	Z35	X36	Y36	Z36	X37	Y37	Z37	X38	Y38	Z38	X39	Y39	Z39	X40	Y40	Z40	X41	Y41	Z41	X42	Y42	Z42	X43	Y43	Z43	X44	Y44	Z44	X45	Y45	Z45	X46	Y46	Z46	X47	Y47	Z47	
342	3.41	516.32312	995.05963	-639.46191	513.93951	1063.4067	-651.97168	348.15079	1441.6849	-747.27216	508.7254	1379.5259	-853.58881	685.60535	1433.9479	-763.32605	502.9111	1496.0851	-726.37433	633.19836	947.7569	-877.26794	356.04767	973.24469	-856.45563	602.08936	740.66711	-903.26392	670.48022	638.80737	-815.74567	590.08612	576.02881	-879.02264	652.42621	486.82257	-829.06165	596.05835	487.44302	-870.12634	544.15228	463.83731	-807.85303	363.42557	749.02423	-887.31281	297.00055	651.00195	-780.62451	346.31766	557.6106	-854.68964	349.37421	488.19131	-847.18781	397.99637	490.35168	-814.82953	297.77887	510.2905	-801.55566	331.5481	420.73187	-821.86523	265.42932	315.45477	-731.06439	321.86142	194.84837	-780.72223	365.06577	96.579102	-741.23993	277.26025	85.14782	-717.29834	611.25726	400.46255	-839.67444	689.11377	305.0368	-771.61676	624.31207	204.29135	-797.86572	669.71545	85.171204	-735.40417	577.33954	105.95734	-748.57318	625.13947	43.856911	-652.47986	630.62701	97.757179	-827.66217	684.40369	37.051876	-747.19232	695.98236	31.714842	-833.62799	576.92871	29.300817	-858.9812	639.15173	44.632343	-950.6441	333.66635	38.245224	-650.56586	263.87427	35.215935	-735.01788	242.41319	33.452045	-830.16687	300.55911	96.315163	-813.5188	291.44592	45.293831	-944.53027	357.1636	27.371899	-855.26202	238.00264	1083.7188	-744.63794	236.75192	826.9646	-785.95966	774.13635	1076.1736	-745.29626	747.93109	824.20697	-806.67194	329.06732	9.6700697	-146.68954
343	3.42	516.36334	995.03851	-639.41559	513.96075	1063.387	-651.88202	348.18576	1441.6741	-747.2041	508.7363	1379.5398	-853.52966	685.62665	1433.9675	-763.26917	502.90097	1496.1064	-726.30237	633.1875	947.71942	-877.22589	356.05936	973.25476	-856.41119	602.08777	740.68298	-903.22296	670.48615	638.84332	-815.74628	590.09937	576.0448	-879.00232	652.42035	486.81598	-829.04803	596.0686	487.47632	-870.10834	544.1358	463.88171	-807.85095	363.43927	749.03345	-887.27185	297.01767	651.0105	-780.58875	346.32071	557.62549	-854.68579	349.36606	488.20465	-847.18036	397.99564	490.37048	-814.81842	297.78448	510.2843	-801.54425	331.54495	420.73297	-821.85699	265.4292	315.45496	-731.06439	321.86755	194.86024	-780.71259	365.07013	96.612801	-741.23236	277.24533	85.155365	-717.29657	611.2464	400.48535	-839.66064	689.15948	305.02856	-771.6134	624.30463	204.28456	-797.86444	669.65588	85.160233	-735.349	577.31665	105.99767	-748.60492	625.13654	43.856026	-652.47772	630.60907	97.742607	-827.64569	684.35822	37.019791	-747.1684	696.00293	31.708811	-833.61884	576.92969	29.298103	-858.98206	639.164	44.636353	-950.65143	333.66736	38.235027	-650.56586	263.87888	35.212254	-735.01788	242.36404	33.507153	-830.19409	300.55695	96.330589	-813.52173	291.45303	45.303402	-944.53394	357.2338	27.390932	-855.28503	238.00537	1083.7247	-744.58472	236.73897	826.9845	-785.92529	774.12762	1076.1744	-745.26233	747.93549	824.21167	-806.61871	329.05331	9.6677876	-146.68884
344	3.43	516.38702	995.00488	-639.37061	513.96387	1063.4001	-651.88635	348.17065	1441.6869	-747.13354	508.71408	1379.5668	-853.48907	685.63794	1433.9725	-763.23865	502.92767	1496.0946	-726.24829	633.18201	947.7489	-877.19238	356.06161	973.28467	-856.36243	602.10864	740.69159	-903.1795	670.49994	638.83807	-815.68085	590.10455	576.04181	-878.96295	652.43323	486.84357	-828.98096	596.07996	487.47382	-870.08978	544.14972	463.8555	-807.81964	363.4397	749.05096	-887.23541	297.01791	651.01752	-780.56653	346.33133	557.63727	-854.64722	349.37418	488.20239	-847.14697	397.9935	490.38959	-814.80725	297.76453	510.34653	-801.49652	331.53528	420.75354	-821.83655	265.42813	315.4743	-731.05963	321.86716	194.8588	-780.71283	365.0473	96.614471	-741.21887	277.24268	85.146393	-717.2948	611.26227	400.49731	-839.64032	689.14923	305.02783	-771.59039	624.32141	204.29256	-797.85254	669.64215	85.161987	-735.32092	577.29938	105.97498	-748.5816	625.13287	43.865139	-652.47235	630.62384	97.773811	-827.64032	684.41547	37.065205	-747.1908	696.01794	31.708229	-833.59979	576.93213	29.31728	-858.98041	639.16138	44.649204	-950.64117	333.65332	38.258373	-650.57629	263.87897	35.212177	-735.01788	242.38213	33.49736	-830.19788	300.55307	96.346451	-813.51129	291.4498	45.311275	-944.53552	357.23706	27.384781	-855.28345	238.02811	1083.7125	-744.51544	236.76129	826.99158	-785.8775	774.15887	1076.1959	-745.22437	747.96234	824.20929	-806.59613	329.06274	9.6693573	-146.69348
345	3.44	516.33276	995.01355	-639.19928	513.96576	1063.3845	-651.80304	348.17429	1441.7018	-747.08234	508.74384	1379.5813	-853.43146	685.63641	1433.9929	-763.18158	502.92975	1496.0948	-726.18646	633.22925	947.76538	-877.15765	356.06189	973.28748	-856.30048	602.09888	740.69299	-903.13654	670.49066	638.85065	-815.64142	590.12091	576.03522	-878.95209	652.45831	486.86526	-828.99103	596.06854	487.47894	-870.05884	544.15118	463.85266	-807.78931	363.47162	749.03864	-887.21246	297.0062	651.00781	-780.53644	346.32986	557.64148	-854.64044	349.37735	488.21707	-847.14703	397.9978	490.36218	-814.7467	297.78009	510.35248	-801.48956	331.54892	420.75009	-821.81439	265.45694	315.43994	-731.03485	321.8624	194.86588	-780.71088	365.04172	96.585747	-741.20514	277.26193	85.138329	-717.2843	611.25531	400.49078	-839.6131	689.15698	305.01852	-771.58417	624.32153	204.2926	-797.85248	669.62445	85.152397	-735.31586	577.32935	105.96232	-748.58258	625.1449	43.840172	-652.46753	630.56213	97.71579	-827.6236	684.36353	37.032806	-747.17395	696.01129	31.709679	-833.59766	576.92395	29.323065	-858.98743	639.15637	44.645714	-950.63574	333.68735	38.257362	-650.56323	263.88684	35.196056	-735.00439	242.36902	33.529465	-830.21185	300.54889	96.326759	-813.49579	291.45422	45.315697	-944.53271	357.2229	27.37751	-855.28241	238.01527	1083.7279	-744.48071	236.66571	827.04962	-785.87939	774.17108	1076.1959	-745.14716	747.98303	824.21252	-806.52924	329.07031	9.6650143	-146.70235
